<svg xmlns="http://www.w3.org/2000/svg" width="80" height="80" viewBox="0 0 80 80">
  <defs>
    <style>
      .cls-1 {
        fill: #f92c8b;
      }

      .cls-2 {
        fill: #fff;
      }
    </style>
  </defs>
  <g id="Group_915" data-name="Group 915" transform="translate(-236 19)">
    <circle id="Ellipse_1" data-name="Ellipse 1" class="cls-1" cx="40" cy="40" r="40" transform="translate(236 -19)"/>
    <path id="bell" class="cls-2" d="M39.086,30.019v-7.97A15.037,15.037,0,0,0,26.555,7.238V4.506a2.506,2.506,0,1,0-5.012,0V7.238A15.037,15.037,0,0,0,9.012,22.049v7.97A7.518,7.518,0,0,0,4,37.086V42.1A2.506,2.506,0,0,0,6.506,44.6h7.869a10.025,10.025,0,0,0,19.347,0h7.869A2.506,2.506,0,0,0,44.1,42.1V37.086a7.518,7.518,0,0,0-5.012-7.067Zm-25.061-7.97a10.025,10.025,0,1,1,20.049,0v7.518H14.025ZM24.049,47.111A5.012,5.012,0,0,1,19.739,44.6H28.36A5.012,5.012,0,0,1,24.049,47.111Zm15.037-7.518H9.012V37.086a2.506,2.506,0,0,1,2.506-2.506H36.58a2.506,2.506,0,0,1,2.506,2.506Z" transform="translate(252 -6)"/>
  </g>
</svg>
