<svg xmlns="http://www.w3.org/2000/svg" width="30" height="28.5" viewBox="0 0 30 28.5">
  <defs>
    <style>
      .cls-1 {
        fill: #fff;
      }
    </style>
  </defs>
  <path id="briefcase-alt" class="cls-1" d="M27.5,8.5H23V7a4.5,4.5,0,0,0-4.5-4.5h-3A4.5,4.5,0,0,0,11,7V8.5H6.5A4.5,4.5,0,0,0,2,13V26.5A4.5,4.5,0,0,0,6.5,31h21A4.5,4.5,0,0,0,32,26.5V13A4.5,4.5,0,0,0,27.5,8.5ZM14,7a1.5,1.5,0,0,1,1.5-1.5h3A1.5,1.5,0,0,1,20,7V8.5H14ZM29,26.5A1.5,1.5,0,0,1,27.5,28H6.5A1.5,1.5,0,0,1,5,26.5V18.25a31.9,31.9,0,0,0,4.5,1.41v.885a1.5,1.5,0,0,0,3,0V20.23a34.5,34.5,0,0,0,4.5.315,34.5,34.5,0,0,0,4.5-.315v.315a1.5,1.5,0,0,0,3,0V19.66A31.905,31.905,0,0,0,29,18.25Zm0-11.535a30.585,30.585,0,0,1-4.5,1.5V16a1.5,1.5,0,0,0-3,0v1.11a30.165,30.165,0,0,1-9,0V16a1.5,1.5,0,0,0-3,0v.495A30.585,30.585,0,0,1,5,15V13a1.5,1.5,0,0,1,1.5-1.5h21A1.5,1.5,0,0,1,29,13Z" transform="translate(-2 -2.5)"/>
</svg>
