<svg height="512pt" viewBox="0 0 512 512" width="512pt" xmlns="http://www.w3.org/2000/svg"><path d="m476.933594 418v-76.992188l-102.917969-80.046874v-43.40625l-102.953125-137.269532v-24.734375h25.550781v-30h-25.550781v-25.550781h-30v25.550781h-25.550781v30h25.550781v24.832031l-102.878906 137.171876v42.199218l-105.894532 81.1875v77.058594h-32.289062v94h512v-94zm5.066406 64h-101.984375c6.347656-19.703125 24.863281-34 46.648437-34h55.335938zm-245.667969 0v-57c0-10.84375 8.824219-19.667969 19.667969-19.667969s19.667969 8.824219 19.667969 19.667969v57zm19.667969-106.667969c-27.386719 0-49.667969 22.28125-49.667969 49.667969v57h-38.148437v-254.445312l87.03125-116.039063h1.769531l87.03125 116.039063v254.445312h-38.351563v-57c.003907-27.386719-22.277343-49.667969-49.664062-49.667969zm-226 106.667969v-34h55.332031c21.789063 0 40.304688 14.296875 46.652344 34zm108.183594-43.660156c-14.007813-12.636719-32.546875-20.339844-52.851563-20.339844h-23.042969v-62.257812l75.894532-58.1875zm308.75-20.339844h-20.269532c-20.207031 0-38.660156 7.636719-52.648437 20.164062v-139.199218l72.917969 56.714844zm0 0"/><path d="m241.101562 279.730469h30v49.171875h-30zm0 0"/><path d="m241.101562 184.820312h30v49.171876h-30zm0 0"/></svg>