<svg xmlns="http://www.w3.org/2000/svg" width="25" height="25" viewBox="0 0 25 25">
  <defs>
    <style>
      .cls-1 {
        fill: #fff;
      }
    </style>
  </defs>
  <path id="clock" class="cls-1" d="M13.5,2A12.5,12.5,0,1,0,26,14.5,12.5,12.5,0,0,0,13.5,2Zm0,22.5a10,10,0,1,1,10-10A10,10,0,0,1,13.5,24.5Zm3.875-9.212L14.75,13.775V8.25a1.25,1.25,0,0,0-2.5,0v6.4a.813.813,0,0,0,.063.25,1.112,1.112,0,0,0,.1.212,1.075,1.075,0,0,0,.125.2l.2.163.113.112,3.25,1.875a1.254,1.254,0,1,0,1.25-2.175Z" transform="translate(-1 -2)"/>
</svg>
