<svg xmlns="http://www.w3.org/2000/svg" width="30" height="28.44" viewBox="0 0 30 28.44">
  <defs>
    <style>
      .cls-1 {
        fill: #fff;
      }
    </style>
  </defs>
  <g id="couple" transform="translate(0 -13.312)">
    <g id="Group_284" data-name="Group 284" transform="translate(0 13.312)">
      <g id="Group_283" data-name="Group 283" transform="translate(0 0)">
        <path id="Path_59" data-name="Path 59" class="cls-1" d="M14.434,28.411l-3.154-.946V26.187a5.118,5.118,0,0,0,2.066-3.739,1.475,1.475,0,0,0,.534-2.538v-3.04a2.517,2.517,0,0,0-1.114-2.08,1.985,1.985,0,0,0-1.926-1.48H6.68a4.084,4.084,0,0,0-4.08,4.08v2.52a1.475,1.475,0,0,0,.534,2.538A5.118,5.118,0,0,0,5.2,26.187v1.278L1.425,28.6A1.987,1.987,0,0,0,0,30.513v5.079a.439.439,0,0,0,.439.439H.52v5.281a.439.439,0,1,0,.879,0V36.032H3.12v5.281a.439.439,0,1,0,.879,0v-8.32a.439.439,0,0,0-.046-.2l-1.04-2.08a.439.439,0,0,0-.786.393L3.12,33.1v2.057H.879v-4.64a1.114,1.114,0,0,1,.8-1.073l1.578-.473a5.12,5.12,0,0,0,9.967,0l.958.288a.439.439,0,0,0,.253-.842ZM4,22.072a.439.439,0,0,0-.439-.439.6.6,0,0,1-.6-.6.594.594,0,0,1,.3-.516l.028-.019a.6.6,0,0,1,.271-.066h.665a.958.958,0,0,0,.91-.656l.3-.908c1.033-.023,4.289-.167,6.119-1.082A.439.439,0,0,0,11.163,17c-1.962.981-6,.994-6.044.994a.439.439,0,0,0-.417.3l-.4,1.2a.08.08,0,0,1-.076.055H3.56l-.081,0V17.392a3.2,3.2,0,0,1,3.2-3.2h4.16a1.112,1.112,0,0,1,1.1.945.44.44,0,0,0,.218.314A1.64,1.64,0,0,1,13,16.872v3.264a.439.439,0,0,0,.218.38.594.594,0,0,1,.3.516.6.6,0,0,1-.6.6.439.439,0,0,0-.439.439,4.241,4.241,0,1,1-8.481,0Zm6.4,4.64v1.08a2.161,2.161,0,0,1-4.321.006s0,0,0-.006V26.712a5.109,5.109,0,0,0,4.321,0Zm.6,4.3a4.241,4.241,0,0,1-6.9-2.295l1.155-.347a3.039,3.039,0,0,0,5.969,0l1.155.347A4.244,4.244,0,0,1,11,31.007Z" transform="translate(0 -13.312)"/>
      </g>
    </g>
    <g id="Group_286" data-name="Group 286" transform="translate(6.76 23.192)">
      <g id="Group_285" data-name="Group 285" transform="translate(0 0)">
        <path id="Path_60" data-name="Path 60" class="cls-1" d="M118.173,182.036a.439.439,0,0,0-.618.064.862.862,0,0,1-1.4,0,.439.439,0,0,0-.683.554,1.739,1.739,0,0,0,2.763,0A.439.439,0,0,0,118.173,182.036Z" transform="translate(-115.377 -181.938)"/>
      </g>
    </g>
    <g id="Group_288" data-name="Group 288" transform="translate(5.72 20.592)">
      <g id="Group_287" data-name="Group 287" transform="translate(0 0)">
        <path id="Path_61" data-name="Path 61" class="cls-1" d="M98.064,137.562a.439.439,0,0,0-.439.439v.52a.439.439,0,0,0,.879,0V138A.44.44,0,0,0,98.064,137.562Z" transform="translate(-97.625 -137.562)"/>
      </g>
    </g>
    <g id="Group_290" data-name="Group 290" transform="translate(9.88 20.592)">
      <g id="Group_289" data-name="Group 289" transform="translate(0 0)">
        <path id="Path_62" data-name="Path 62" class="cls-1" d="M169.064,137.562a.439.439,0,0,0-.439.439v.52a.439.439,0,0,0,.879,0V138A.44.44,0,0,0,169.064,137.562Z" transform="translate(-168.625 -137.562)"/>
      </g>
    </g>
    <g id="Group_292" data-name="Group 292" transform="translate(20.801 25.792)">
      <g id="Group_291" data-name="Group 291" transform="translate(0 0)">
        <path id="Path_63" data-name="Path 63" class="cls-1" d="M357.8,226.409a.439.439,0,0,0-.618.064.862.862,0,0,1-1.4,0,.439.439,0,0,0-.683.554,1.739,1.739,0,0,0,2.763,0A.439.439,0,0,0,357.8,226.409Z" transform="translate(-355.002 -226.311)"/>
      </g>
    </g>
    <g id="Group_294" data-name="Group 294" transform="translate(19.761 23.192)">
      <g id="Group_293" data-name="Group 293" transform="translate(0 0)">
        <path id="Path_64" data-name="Path 64" class="cls-1" d="M337.689,181.937a.439.439,0,0,0-.439.439v.52a.439.439,0,0,0,.879,0v-.52A.439.439,0,0,0,337.689,181.937Z" transform="translate(-337.25 -181.937)"/>
      </g>
    </g>
    <g id="Group_296" data-name="Group 296" transform="translate(23.921 23.192)">
      <g id="Group_295" data-name="Group 295" transform="translate(0 0)">
        <path id="Path_65" data-name="Path 65" class="cls-1" d="M408.69,181.937a.439.439,0,0,0-.439.439v.52a.439.439,0,1,0,.879,0v-.52A.439.439,0,0,0,408.69,181.937Z" transform="translate(-408.25 -181.937)"/>
      </g>
    </g>
    <g id="Group_298" data-name="Group 298" transform="translate(12.48 15.392)">
      <g id="Group_297" data-name="Group 297" transform="translate(0 0)">
        <path id="Path_66" data-name="Path 66" class="cls-1" d="M229.263,65.611,225.7,64.185a.606.606,0,0,1-.086-.043,21.831,21.831,0,0,0,3.6-.964.439.439,0,0,0,.269-.461,74.057,74.057,0,0,1-.517-7.746,6.16,6.16,0,1,0-12.319,0,74.078,74.078,0,0,1-.517,7.746.44.44,0,0,0,.27.461,21.833,21.833,0,0,0,3.6.964.608.608,0,0,1-.086.043l-3.566,1.426a1.99,1.99,0,0,0-1.257,1.856v1.1h-1.2V66.515l.994-1.987a.439.439,0,1,0-.786-.393l-1.04,2.08a.439.439,0,0,0-.046.2v8.32a.439.439,0,0,0,.879,0V69.451h1.2v.6a.439.439,0,0,0,.439.439h.081v4.24a.439.439,0,1,0,.879,0V70.491h1.2v4.241a.439.439,0,1,0,.879,0v-5.72a.439.439,0,1,0-.879,0v.6h-1.721V67.467a1.115,1.115,0,0,1,.7-1.04l1.753-.7a4.6,4.6,0,0,0,8.767,0l1.753.7a1.115,1.115,0,0,1,.7,1.04v2.145h-1.721v-.6a.439.439,0,0,0-.879,0v5.72a.439.439,0,0,0,.879,0V70.491h1.2v4.241a.439.439,0,0,0,.879,0V70.491h.081a.439.439,0,0,0,.439-.439V67.467A1.99,1.99,0,0,0,229.263,65.611Zm-11.744-10.64a5.281,5.281,0,0,1,10.562,0,73.505,73.505,0,0,0,.482,7.506,26.125,26.125,0,0,1-3.244.827v-.757a5.071,5.071,0,0,0,.7-.473,5.107,5.107,0,0,0,1.9-3.983c0-2.56-1.854-2.928-3.647-3.284a7.313,7.313,0,0,1-3.278-1.22.44.44,0,0,0-.667.146,5.152,5.152,0,0,1-.665.962,2.243,2.243,0,0,1-1.542.876,1.47,1.47,0,0,0-.607.131C217.517,55.457,217.519,55.213,217.519,54.971Zm5.281,7.361a4.193,4.193,0,0,1-2.664-.941,4.228,4.228,0,0,1-1.577-3.3.439.439,0,0,0-.439-.439.6.6,0,1,1,0-1.2,3.633,3.633,0,0,0,2.736-1.882,9.071,9.071,0,0,0,3.246,1.1c1.931.383,2.939.665,2.939,2.422a4.228,4.228,0,0,1-1.577,3.3A4.193,4.193,0,0,1,222.8,62.332Zm-5.763.145c.078-.682.249-2.286.365-4.133a1.471,1.471,0,0,0,.292.125,5.111,5.111,0,0,0,2.586,4.079V63.3A26.12,26.12,0,0,1,217.037,62.476Zm5.763,5.575a3.719,3.719,0,0,1-3.565-2.653l.995-.4a1.472,1.472,0,0,0,.93-1.374v-.688a5.088,5.088,0,0,0,3.281,0v.688A1.472,1.472,0,0,0,225.37,65l.995.4A3.718,3.718,0,0,1,222.8,68.052Z" transform="translate(-213 -48.811)"/>
      </g>
    </g>
  </g>
</svg>
