<svg xmlns="http://www.w3.org/2000/svg" width="25" height="23.884" viewBox="0 0 25 23.884">
  <defs>
    <style>
      .cls-1 {
        fill: #fff;
      }
    </style>
  </defs>
  <path id="favorite" class="cls-1" d="M26.964,11.466a1.248,1.248,0,0,0-1.074-.836l-7.1-1.036L15.6,3.14a1.248,1.248,0,0,0-2.247,0L10.175,9.581l-7.1,1.049a1.23,1.23,0,0,0-.7,2.1L7.528,17.72,6.28,24.811a1.248,1.248,0,0,0,1.835,1.348l6.366-3.333,6.366,3.333a1.161,1.161,0,0,0,.574.15,1.255,1.255,0,0,0,1.236-1.485l-1.248-7.09,5.155-4.993A1.248,1.248,0,0,0,26.964,11.466Zm-7.677,4.993a1.248,1.248,0,0,0-.362,1.1l.9,5.243-4.694-2.5a1.323,1.323,0,0,0-1.173,0L9.264,22.8l.9-5.243a1.248,1.248,0,0,0-.362-1.1L6.055,12.715l5.255-.761a1.248,1.248,0,0,0,.949-.687L14.481,6.51l2.347,4.768a1.248,1.248,0,0,0,.949.687l5.255.761Z" transform="translate(-2.006 -2.436)"/>
</svg>
