<svg xmlns="http://www.w3.org/2000/svg" width="30" height="22.746" viewBox="0 0 30 22.746">
  <defs>
    <style>
      .cls-1 {
        fill: #fff;
      }
    </style>
  </defs>
  <path id="graduation-hat" class="cls-1" d="M30.274,12.6l-1.429-.786h0L15.987,4.666h-.157a1.515,1.515,0,0,0-.271-.086h-.529a1.672,1.672,0,0,0-.286.086h-.157L1.727,11.81a1.429,1.429,0,0,0,0,2.486l3.558,1.972V23.04a4.286,4.286,0,0,0,4.286,4.286H21a4.286,4.286,0,0,0,4.286-4.286V16.267l2.858-1.6v4.086a1.429,1.429,0,0,0,2.858,0V13.838a1.429,1.429,0,0,0-.729-1.243ZM22.43,23.04A1.429,1.429,0,0,1,21,24.469H9.571A1.429,1.429,0,0,1,8.143,23.04V17.853l6.444,3.572.214.086h.129a1.429,1.429,0,0,0,.357,0h0a1.429,1.429,0,0,0,.357,0h.129a.672.672,0,0,0,.214-.086l6.444-3.572Zm-7.144-4.486L5.371,13.038l9.916-5.515L25.2,13.038Z" transform="translate(-1.003 -4.58)"/>
</svg>
