<svg xmlns="http://www.w3.org/2000/svg" width="28.947" height="25.566" viewBox="0 0 28.947 25.566">
  <defs>
    <style>
      .cls-1 {
        fill: #fff;
      }
    </style>
  </defs>
  <path id="heart-medical" class="cls-1" d="M19.391,14.514H17.942V13.065a1.449,1.449,0,1,0-2.9,0v1.449H13.6a1.449,1.449,0,0,0,0,2.9h1.449V18.86a1.449,1.449,0,0,0,2.9,0V17.411h1.449a1.449,1.449,0,0,0,0-2.9Zm8.925-8.693a9.113,9.113,0,0,0-11.822-.855A9.084,9.084,0,0,0,4.671,18.7l8.693,8.765a4.346,4.346,0,0,0,6.143,0L28.2,18.7a9.084,9.084,0,0,0,.116-12.88ZM26.273,16.629,17.58,25.322a1.449,1.449,0,0,1-2.057,0L6.83,16.629a6.147,6.147,0,0,1,8.693-8.693,1.449,1.449,0,0,0,2.057,0,6.157,6.157,0,1,1,8.693,8.722Z" transform="translate(-1.988 -3.171)"/>
</svg>
