<svg xmlns="http://www.w3.org/2000/svg" width="25" height="22.178" viewBox="0 0 25 22.178">
  <defs>
    <style>
      .cls-1 {
        fill: #707070;
      }
    </style>
  </defs>
  <path id="heart" class="cls-1" d="M24.709,5.47a7.864,7.864,0,0,0-10.2-.8A7.839,7.839,0,0,0,4.3,16.523L12.068,24.3a3.476,3.476,0,0,0,4.876,0l7.764-7.777A7.839,7.839,0,0,0,24.709,5.47ZM22.946,14.8l-7.764,7.764a.95.95,0,0,1-1.35,0l-7.764-7.8a5.3,5.3,0,1,1,7.5-7.5,1.25,1.25,0,0,0,1.775,0,5.341,5.341,0,0,1,7.6,7.5Z" transform="translate(-1.988 -3.121)"/>
</svg>
