<svg xmlns="http://www.w3.org/2000/svg" viewBox="0 0 300 300"><defs><style>.a{fill:#fe5f6b;}</style></defs><title>icons</title><path class="a" d="M156.719,99.16c-18.4,0-36.553,11.621-45.877,26.924-9.323-15.3-27.481-26.924-45.876-26.924-26.4,0-52.316,23.941-52.316,48.333,0,27.867,15.984,58.606,47.5,91.369A345.309,345.309,0,0,0,106.979,279.4a6.867,6.867,0,0,0,7.727,0,345.377,345.377,0,0,0,46.826-40.542c31.518-32.763,47.5-63.5,47.5-91.369C209.035,123.1,183.122,99.16,156.719,99.16Z"/><path class="a" d="M192.172,73.558a5.949,5.949,0,1,0,0,11.9,23.823,23.823,0,0,1,23.8,23.8,5.949,5.949,0,0,0,11.9,0A35.736,35.736,0,0,0,192.172,73.558Z"/><path class="a" d="M192.172,43.815a5.949,5.949,0,1,0,0,11.9A53.6,53.6,0,0,1,245.71,109.25a5.949,5.949,0,0,0,11.9,0A65.508,65.508,0,0,0,192.172,43.815Z"/><path class="a" d="M192.172,14.072a5.949,5.949,0,1,0,0,11.9,83.281,83.281,0,0,1,83.281,83.281,5.949,5.949,0,0,0,11.9,0,95.176,95.176,0,0,0-95.178-95.178Z"/></svg>