<svg xmlns="http://www.w3.org/2000/svg" viewBox="0 0 300 300"><defs><style>.a{fill:#fe5f6b;}</style></defs><title>icons</title><path class="a" d="M204.09,114.3a54.43,54.43,0,0,1,40.945-52.6c-9.764-9.134-24.882-17.008-45.354-16.693-38.11,2.834-50.709,26.771-60.157,46.3-9.134-19.843-24.567-46.614-64.252-46.3C42.516,47.213,23.3,67.056,16.06,91.938c-8.5,30.236,2.519,63.936,16.063,82.834,14.173,19.527,34.645,35.905,52.6,51.653,19.212,16.693,31.181,22.992,55.433,42.835,23.936-22.047,61.732-45.669,93.227-78.425a177.317,177.317,0,0,0,17.953-22.677A54.141,54.141,0,0,1,204.09,114.3Z"/><polygon class="a" points="267.712 85.953 249.444 85.953 249.444 105.166 230.232 105.166 230.232 123.749 249.444 123.749 249.444 142.646 267.712 142.646 267.712 123.749 286.924 123.749 286.924 105.166 267.712 105.166 267.712 85.953"/></svg>