<svg xmlns="http://www.w3.org/2000/svg" viewBox="0 0 300 300"><defs><style>.a{fill:#fe5f6b;}</style></defs><title>icons</title><path class="a" d="M273.83,251.959H36.107a13.537,13.537,0,0,1-13.52-13.52V75.274a13.537,13.537,0,0,1,13.52-13.52H273.83a13.537,13.537,0,0,1,13.52,13.52V238.439A13.537,13.537,0,0,1,273.83,251.959ZM36.107,72.344a2.932,2.932,0,0,0-2.929,2.93V238.439a2.931,2.931,0,0,0,2.929,2.929H273.83a2.932,2.932,0,0,0,2.93-2.929V75.274a2.933,2.933,0,0,0-2.93-2.93Z"/><path class="a" d="M282.055,148.7H27.883a5.3,5.3,0,0,1-5.3-5.3v-38.39a5.3,5.3,0,0,1,5.3-5.3H282.055a5.3,5.3,0,0,1,5.3,5.3v38.39A5.3,5.3,0,0,1,282.055,148.7ZM33.178,138.111H276.76v-27.8H33.178Z"/><path class="a" d="M226.982,218.706a23.793,23.793,0,0,1-15.2-5.518,23.676,23.676,0,1,1,15.2,5.518Zm0-36.751a13.086,13.086,0,0,0-8.426,23.091,13.082,13.082,0,1,0,8.426-23.091Z"/><path class="a" d="M203.365,218.706a23.671,23.671,0,1,1,15.24-41.736,5.3,5.3,0,0,1-.052,8.111,13.039,13.039,0,0,0,0,19.965,5.3,5.3,0,0,1,.01,8.142A23.789,23.789,0,0,1,203.365,218.706Zm0-36.751a13.08,13.08,0,1,0,3.545,25.669,23.749,23.749,0,0,1,.024-25.168A12.933,12.933,0,0,0,203.365,181.955Z"/><path class="a" d="M142.9,185.272H58.012a5.3,5.3,0,0,1,0-10.591H142.9a5.3,5.3,0,0,1,0,10.591Z"/><path class="a" d="M103.022,215.389H58.012a5.3,5.3,0,0,1,0-10.591h45.01a5.3,5.3,0,0,1,0,10.591Z"/><circle class="a" cx="226.983" cy="195.035" r="23.67"/><rect class="a" x="28.421" y="103.579" width="252.022" height="41.211"/></svg>