<svg xmlns="http://www.w3.org/2000/svg" viewBox="0 0 300 300"><defs><style>.a{fill:#fff;}.b{fill:#fe5f6b;}.c{fill:#4d4d4d;}</style></defs><title>icons</title><path class="a" d="M264.386,12.674H54.642a13.2,13.2,0,0,0-13.2,13.2V281.084a13.2,13.2,0,0,0,13.2,13.2H264.386a13.2,13.2,0,0,0,13.2-13.2V25.875A13.2,13.2,0,0,0,264.386,12.674ZM159.514,90.353a32.919,32.919,0,1,1-32.921,32.917A32.916,32.916,0,0,1,159.514,90.353ZM99.76,216.61a59.752,59.752,0,1,1,119.5,0Z"/><path class="b" d="M159.514,90.326a32.919,32.919,0,1,1-32.921,32.918A32.917,32.917,0,0,1,159.514,90.326Z"/><path class="b" d="M99.76,216.583a59.752,59.752,0,1,1,119.5,0Z"/><path class="c" d="M19.619,75.065H59.44a6.69,6.69,0,0,0,0-13.38H19.619a6.69,6.69,0,0,0,0,13.38Z"/><path class="c" d="M59.44,118.708H19.619a6.69,6.69,0,0,0,0,13.38H59.44a6.69,6.69,0,0,0,0-13.38Z"/><path class="c" d="M59.44,175.094H19.619a6.69,6.69,0,0,0,0,13.38H59.44a6.69,6.69,0,0,0,0-13.38Z"/><path class="c" d="M59.44,231.8H19.619a6.69,6.69,0,0,0,0,13.38H59.44a6.69,6.69,0,0,0,0-13.38Z"/></svg>