<svg xmlns="http://www.w3.org/2000/svg" viewBox="0 0 300 300"><defs><style>.a{fill:#fe5f6b;}</style></defs><title>icons</title><path class="a" d="M155.874,147.615a41.982,41.982,0,1,0-41.991-41.98A41.984,41.984,0,0,0,155.874,147.615Z"/><path class="a" d="M173.683,150.477H138.058c-29.641,0-53.755,18.7-53.755,41.689v33.786l.11.529,3,.729a310.334,310.334,0,0,0,73.09,9.139c39.508,0,62.408-8.735,63.819-9.292l2.8-1.1h.3V192.166C227.438,169.18,203.324,150.477,173.683,150.477Z"/><path class="a" d="M230.906,146.718a30.015,30.015,0,1,0-30.021-30.013A30.016,30.016,0,0,0,230.906,146.718Z"/><path class="a" d="M243.639,150.817H218.167a47.951,47.951,0,0,0-11.415,1.5,59.02,59.02,0,0,1,8.135,5.2c11.8,9.152,18.3,21.461,18.291,34.656V212.18c.334,0,.709.03,1.04.03,28.244,0,44.616-6.245,45.624-6.643l2.006-.786h.214V180.623C282.069,164.189,264.831,150.817,243.639,150.817Z"/><path class="a" d="M109.977,117.732a30.018,30.018,0,1,0-30.021,30.013A30.022,30.022,0,0,0,109.977,117.732Z"/><path class="a" d="M67.223,151.844H92.7a47.936,47.936,0,0,1,11.414,1.5,59.069,59.069,0,0,0-8.134,5.2C84.179,167.7,77.671,180,77.684,193.2v20.008c-.334,0-.709.03-1.04.03-28.245,0-44.617-6.245-45.624-6.643l-2.006-.786H28.8V181.649C28.793,165.216,46.031,151.844,67.223,151.844Z"/></svg>