<svg xmlns="http://www.w3.org/2000/svg" viewBox="0 0 300 300"><defs><style>.a{fill:#4caf50;}.b{fill:#fafafa;}</style></defs><title>icons</title><path class="a" d="M157.345,19.312h-.065C85.222,19.312,26.625,77.926,26.625,150a129.711,129.711,0,0,0,24.88,76.6L35.218,275.15l50.233-16.059a129.553,129.553,0,0,0,71.894,21.6C229.4,280.687,288,222.058,288,150S229.4,19.312,157.345,19.312Z"/><path class="b" d="M233.389,203.86c-3.153,8.9-15.666,16.287-25.647,18.443-6.829,1.454-15.748,2.614-45.774-9.834C123.562,196.557,98.83,157.531,96.9,155c-1.846-2.532-15.519-20.665-15.519-39.419S90.907,87.7,94.746,83.774c3.153-3.218,8.364-4.688,13.363-4.688,1.617,0,3.071.081,4.378.147,3.839.163,5.766.392,8.3,6.452,3.153,7.6,10.831,26.35,11.746,28.278.931,1.928,1.862,4.541.555,7.073a22.576,22.576,0,0,1-4.231,6c-1.927,2.221-3.757,3.92-5.685,6.3-1.764,2.075-3.757,4.3-1.535,8.136,2.222,3.757,9.9,16.287,21.2,26.35,14.588,12.987,26.415,17.136,30.646,18.9,3.153,1.307,6.91,1,9.214-1.454,2.924-3.153,6.534-8.38,10.21-13.526,2.613-3.692,5.913-4.149,9.376-2.842,3.529,1.225,22.2,10.455,26.04,12.366,3.839,1.928,6.371,2.842,7.3,4.46C236.542,187.344,236.542,194.94,233.389,203.86Z"/></svg>