<svg xmlns="http://www.w3.org/2000/svg" width="30" height="30" viewBox="0 0 30 30">
  <defs>
    <style>
      .cls-1 {
        fill: #fff;
      }
    </style>
  </defs>
  <path id="info-circle" class="cls-1" d="M17,15.5A1.5,1.5,0,0,0,15.5,17v6a1.5,1.5,0,1,0,3,0V17A1.5,1.5,0,0,0,17,15.5Zm.57-5.88a1.551,1.551,0,0,0-1.635.315,1.725,1.725,0,0,0-.315.5,1.26,1.26,0,0,0-.12.57,1.5,1.5,0,0,0,.435,1.065,1.725,1.725,0,0,0,.495.315A1.5,1.5,0,0,0,18.5,11a1.575,1.575,0,0,0-.435-1.065A1.5,1.5,0,0,0,17.57,9.62ZM17,2A15,15,0,1,0,32,17,15,15,0,0,0,17,2Zm0,27A12,12,0,1,1,29,17,12,12,0,0,1,17,29Z" transform="translate(-2 -2)"/>
</svg>
