<svg xmlns="http://www.w3.org/2000/svg" width="30" height="30.002" viewBox="0 0 30 30.002">
  <defs>
    <style>
      .cls-1 {
        fill: #fff;
      }
    </style>
  </defs>
  <path id="pen" class="cls-1" d="M32,9.86a1.5,1.5,0,0,0-.435-1.065L25.2,2.435a1.521,1.521,0,0,0-2.13,0L18.83,6.68h0L2.435,23.075A1.5,1.5,0,0,0,2,24.14V30.5A1.5,1.5,0,0,0,3.5,32H9.86A1.5,1.5,0,0,0,11,31.565L27.3,15.17h0L31.565,11a1.785,1.785,0,0,0,.33-.495,1.5,1.5,0,0,0,0-.36,1.05,1.05,0,0,0,0-.21ZM9.245,29H5V24.755L19.895,9.86,24.14,14.1Zm17.01-17.01L22.01,7.745,24.14,5.63l4.23,4.23Z" transform="translate(-2 -2)"/>
</svg>
