<svg xmlns="http://www.w3.org/2000/svg" width="30" height="25.55" viewBox="0 0 30 25.55">
  <defs>
    <style>
      .cls-1 {
        fill: #707070;
      }
    </style>
  </defs>
  <g id="pending" transform="translate(0 -37.627)">
    <g id="Group_335" data-name="Group 335" transform="translate(0 37.627)">
      <g id="Group_334" data-name="Group 334" transform="translate(0 0)">
        <path id="Path_85" data-name="Path 85" class="cls-1" d="M131.131,375.691l-1.419,1.257a13.038,13.038,0,0,0,1.469,1.413l1.2-1.467A10.934,10.934,0,0,1,131.131,375.691Z" transform="translate(-122.041 -355.699)"/>
        <path id="Path_86" data-name="Path 86" class="cls-1" d="M94.507,326.187l-1.739.747a12.61,12.61,0,0,0,.955,1.805l1.6-1.014A10.858,10.858,0,0,1,94.507,326.187Z" transform="translate(-87.282 -309.122)"/>
        <path id="Path_87" data-name="Path 87" class="cls-1" d="M23.631,39.35A12.759,12.759,0,0,0,4.579,48.715L1.338,45.474,0,46.812l5.4,5.4,5.4-5.4L9.462,45.474,6.535,48.4a10.87,10.87,0,1,1,5.233,11.419l-.951,1.636a12.774,12.774,0,0,0,12.814-22.1Z" transform="translate(0 -37.627)"/>
        <path id="Path_88" data-name="Path 88" class="cls-1" d="M267.312,109.627v10.408l4.163,3.122,1.135-1.514-3.406-2.555v-9.462Z" transform="translate(-251.504 -105.369)"/>
      </g>
    </g>
  </g>
</svg>
