<svg xmlns="http://www.w3.org/2000/svg" width="25" height="24.998" viewBox="0 0 25 24.998">
  <defs>
    <style>
      .cls-1 {
        fill: #707070;
      }
    </style>
  </defs>
  <path id="ruler" class="cls-1" d="M25.766,7.923l-6.433-6.49a1.149,1.149,0,0,0-1.617,0L1.433,17.658a1.147,1.147,0,0,0,0,1.617l6.49,6.49a1.149,1.149,0,0,0,1.617,0l3.245-3.245h0l9.736-9.736h0L25.766,9.54A1.147,1.147,0,0,0,25.766,7.923Zm-4.059,2.431-.814-.814a1.147,1.147,0,1,0-1.617,1.628l.814.814L18.461,13.6,16.03,11.168a1.147,1.147,0,0,0-1.617,1.617l2.431,2.431-1.628,1.628-.8-.814a1.151,1.151,0,0,0-1.628,1.628l.814.8-1.617,1.628L9.54,17.658a1.143,1.143,0,0,0-1.617,1.617l2.431,2.431L8.737,23.335,3.864,18.461l14.6-14.6,4.873,4.873Z" transform="translate(-1.1 -1.1)"/>
</svg>
