<?xml version="1.0" encoding="utf-8"?>
<!-- Generator: Adobe Illustrator 23.0.0, SVG Export Plug-In . SVG Version: 6.00 Build 0)  -->
<svg version="1.1" id="Layer_1" xmlns="http://www.w3.org/2000/svg" xmlns:xlink="http://www.w3.org/1999/xlink" x="0px" y="0px"
	 viewBox="0 0 24 24" style="enable-background:new 0 0 24 24;" xml:space="preserve">
<g>
	<path d="M18.1,4.2h-3.2c0.6,0.7,1,1.6,1.1,2.7h2.8L18.1,9H16c-0.2,1.6-0.8,2.8-1.9,3.7c-1.1,0.8-2.7,1.2-4.7,1.2l6.8,7.9V22H13
		l-7.3-8.5l0-1.7h3.4c1.1,0,2.1-0.3,2.8-0.7c0.7-0.5,1.2-1.2,1.4-2h-8l0.6-2.2h7.3c-0.4-1.7-1.8-2.6-4-2.7H5.3L6,2h12.7L18.1,4.2z"
		/>
</g>
</svg>
