<svg xmlns="http://www.w3.org/2000/svg" width="20" height="20.007" viewBox="0 0 20 20.007">
  <defs>
    <style>
      .cls-1 {
        fill: #707070;
      }
    </style>
  </defs>
  <path id="sign-in-alt" class="cls-1" d="M20.5,15.1a1,1,0,0,0-1.34.45,8,8,0,1,1,0-7.1,1.006,1.006,0,0,0,1.8-.9,10,10,0,1,0,0,8.9,1,1,0,0,0-.46-1.35ZM21,11H11.412l2.3-2.291a1,1,0,0,0-1.42-1.42l-4,4a1.034,1.034,0,0,0,0,1.42l4,4a1,1,0,1,0,1.42-1.42L11.412,13H21a1,1,0,1,0,0-2Z" transform="translate(-2.005 -1.999)"/>
</svg>
