<svg xmlns="http://www.w3.org/2000/svg" width="20" height="20.005" viewBox="0 0 20 20.005">
  <defs>
    <style>
      .cls-1 {
        fill: #f92c8b;
      }
    </style>
  </defs>
  <path id="sign-out-alt" class="cls-1" d="M12.592,13l-2.3,2.29a1,1,0,1,0,1.42,1.42l4-4a1.034,1.034,0,0,0,0-1.42l-4-4a1,1,0,1,0-1.42,1.42l2.3,2.29H3a1,1,0,1,0,0,2ZM12,2A10,10,0,0,0,3,7.551a1.006,1.006,0,0,0,1.8.9,8.042,8.042,0,1,1,.04,7.1,1.006,1.006,0,1,0-1.8.9A10,10,0,1,0,12,2Z" transform="translate(-2 -2)"/>
</svg>
