<svg width="30" height="25.5" xmlns="http://www.w3.org/2000/svg">

 <g>
  <title>background</title>
  <rect fill="none" id="canvas_background" height="402" width="582" y="-1" x="-1"/>
 </g>
 <g>
  <title>Layer 1</title>
  <path stroke="null" stroke-dasharray="5,2,2,2" fill="#ffffff" d="m28.188903,11.448284l-1.4625,0l0,-1.5a1.4625,1.5 0 0 0 -2.925,0l0,1.5l-1.4625,0a1.4625,1.5 0 0 0 0,3l1.4625,0l0,1.5a1.4625,1.5 0 0 0 2.925,0l0,-1.5l1.4625,0a1.4625,1.5 0 0 0 0,-3zm-11.261251,2.58a7.195501,7.38 0 0 0 2.48625,-5.58a7.312501,7.5 0 0 0 -14.625001,0a7.195501,7.38 0 0 0 2.48625,5.58a11.700001,12 0 0 0 -6.873751,10.92a1.4625,1.5 0 0 0 2.925,0a8.775001,9 0 1 1 17.550002,0a1.4625,1.5 0 0 0 2.925,0a11.700001,12 0 0 0 -6.873751,-10.92zm-4.82625,-1.08a4.3875,4.5 0 1 1 4.3875,-4.5a4.3875,4.5 0 0 1 -4.3875,4.5z" class="cls-1" id="user-plus"/>
  <path d="m-13.374903,6.35549c-1.499995,1.249996 -3.48044,2.043925 -6.249979,3.24999c-2.979713,1.29759 -5.052692,2.613325 -6.499979,3.24999c-2.356012,1.036415 -3.209141,1.806063 -5.249983,3.249989c-1.471672,1.041229 -2.749992,1.749994 -3.249989,2.249992c-0.999996,0.999998 -1.573219,1.573217 -1.749996,1.749994c-0.707104,0.707106 -0.132454,1.683767 0.5,1.999994c1.581131,0.790564 4.741863,0.173061 6.749977,0c5.236521,-0.45129 10.250746,-0.062441 12.749958,0c5.004668,0.125038 9.862836,-0.918085 12.499959,-1.999994c4.245938,-1.741943 7.999974,-4.999983 9.499969,-5.99998l1.499995,-1.249995l0.749998,-0.25l0.25,-0.249999" id="svg_1" fill-opacity="null" stroke-opacity="null" stroke-width="null" stroke="null" fill="none"/>
  <polyline stroke="null" stroke-linecap="round" id="svg_2" points="12.375012397766113,33.60540008544922 12.375012397766113,33.85540008544922 12.375012397766113,34.85539627075195 " fill-opacity="null" stroke-opacity="null" stroke-width="null" fill="none"/>
 </g>
</svg>