<svg xmlns="http://www.w3.org/2000/svg" width="30" height="25.5" viewBox="0 0 30 25.5">
  <defs>
    <style>
      .cls-1 {
        fill: #707070;
      }
    </style>
  </defs>
  <path id="user-plus" class="cls-1" d="M30.5,14H29V12.5a1.5,1.5,0,0,0-3,0V14H24.5a1.5,1.5,0,0,0,0,3H26v1.5a1.5,1.5,0,0,0,3,0V17h1.5a1.5,1.5,0,0,0,0-3ZM18.95,16.58A7.38,7.38,0,0,0,21.5,11a7.5,7.5,0,0,0-15,0,7.38,7.38,0,0,0,2.55,5.58A12,12,0,0,0,2,27.5a1.5,1.5,0,0,0,3,0,9,9,0,1,1,18,0,1.5,1.5,0,0,0,3,0,12,12,0,0,0-7.05-10.92ZM14,15.5A4.5,4.5,0,1,1,18.5,11,4.5,4.5,0,0,1,14,15.5Z" transform="translate(-2 -3.5)"/>
</svg>
