<svg xmlns="http://www.w3.org/2000/svg" width="25" height="23.75" viewBox="0 0 25 23.75">
  <defs>
    <style>
      .cls-1 {
        fill: #707070;
      }
    </style>
  </defs>
  <path id="briefcase-alt" class="cls-1" d="M23.25,7.5H19.5V6.25A3.75,3.75,0,0,0,15.75,2.5h-2.5A3.75,3.75,0,0,0,9.5,6.25V7.5H5.75A3.75,3.75,0,0,0,2,11.25V22.5a3.75,3.75,0,0,0,3.75,3.75h17.5A3.75,3.75,0,0,0,27,22.5V11.25A3.75,3.75,0,0,0,23.25,7.5ZM12,6.25A1.25,1.25,0,0,1,13.25,5h2.5A1.25,1.25,0,0,1,17,6.25V7.5H12ZM24.5,22.5a1.25,1.25,0,0,1-1.25,1.25H5.75A1.25,1.25,0,0,1,4.5,22.5V15.625A26.588,26.588,0,0,0,8.25,16.8v.738a1.25,1.25,0,0,0,2.5,0v-.262a28.75,28.75,0,0,0,3.75.262,28.75,28.75,0,0,0,3.75-.262v.262a1.25,1.25,0,1,0,2.5,0V16.8a26.587,26.587,0,0,0,3.75-1.175Zm0-9.613a25.488,25.488,0,0,1-3.75,1.25V13.75a1.25,1.25,0,0,0-2.5,0v.925a25.137,25.137,0,0,1-7.5,0V13.75a1.25,1.25,0,0,0-2.5,0v.413a25.488,25.488,0,0,1-3.75-1.25V11.25A1.25,1.25,0,0,1,5.75,10h17.5a1.25,1.25,0,0,1,1.25,1.25Z" transform="translate(-2 -2.5)"/>
</svg>
