<svg xmlns="http://www.w3.org/2000/svg" width="80" height="80" viewBox="0 0 80 80">
  <defs>
    <style>
      .cls-1 {
        fill: #f92c8b;
      }

      .cls-2 {
        fill: #fff;
      }
    </style>
  </defs>
  <g id="Group_2469" data-name="Group 2469" transform="translate(-781 -4940.881)">
    <circle id="Ellipse_2" data-name="Ellipse 2" class="cls-1" cx="40" cy="40" r="40" transform="translate(781 4940.881)"/>
    <path id="envelope-alt" class="cls-2" d="M36,4H8a6,6,0,0,0-6,6V30a6,6,0,0,0,6,6H36a6,6,0,0,0,6-6V10a6,6,0,0,0-6-6ZM8,8H36a2,2,0,0,1,2,2L22,19.76,6,10A2,2,0,0,1,8,8ZM38,30a2,2,0,0,1-2,2H8a2,2,0,0,1-2-2V14.56L20.96,23.7a2,2,0,0,0,2,0L38,14.56Z" transform="translate(799 4960.881)"/>
  </g>
</svg>
