<svg xmlns="http://www.w3.org/2000/svg" xmlns:xlink="http://www.w3.org/1999/xlink" width="98" height="98" viewBox="0 0 98 98">
  <defs>
    <style>
      .cls-1 {
        fill: #f92c8b;
      }

      .cls-2 {
        fill: #fff;
      }

      .cls-3 {
        filter: url(#Path_55);
      }
    </style>
    <filter id="Path_55" x="0" y="0" width="98" height="98" filterUnits="userSpaceOnUse">
      <feOffset dy="3" input="SourceAlpha"/>
      <feGaussianBlur stdDeviation="3" result="blur"/>
      <feFlood flood-opacity="0.161"/>
      <feComposite operator="in" in2="blur"/>
      <feComposite in="SourceGraphic"/>
    </filter>
  </defs>
  <g id="Group_2480" data-name="Group 2480" transform="translate(-1731 -844)">
    <g class="cls-3" transform="matrix(1, 0, 0, 1, 1731, 844)">
      <path id="Path_55-2" data-name="Path 55" class="cls-1" d="M40,0A40,40,0,1,1,0,40,40,40,0,0,1,40,0Z" transform="translate(9 6)"/>
    </g>
    <path id="filter" class="cls-2" d="M44.5,2H9.5A7.5,7.5,0,0,0,2,9.5v2.925a7.5,7.5,0,0,0,.625,3v.15A7.025,7.025,0,0,0,4.1,17.725l15.4,15.3V49.5a2.488,2.488,0,0,0,3.625,2.225l10-5A2.5,2.5,0,0,0,34.5,44.5V33.025l15.3-15.3a7.025,7.025,0,0,0,1.475-2.15v-.15a7.5,7.5,0,0,0,.725-3V9.5A7.5,7.5,0,0,0,44.5,2ZM30.225,30.225A2.5,2.5,0,0,0,29.5,32V42.95l-5,2.5V32a2.5,2.5,0,0,0-.725-1.775L10.525,17h32.95ZM47,12H7V9.5A2.5,2.5,0,0,1,9.5,7h35A2.5,2.5,0,0,1,47,9.5Z" transform="translate(1753 863)"/>
  </g>
</svg>
