<svg xmlns="http://www.w3.org/2000/svg" width="25" height="18.955" viewBox="0 0 25 18.955">
  <defs>
    <style>
      .cls-1 {
        fill: #707070;
      }
    </style>
  </defs>
  <path id="graduation-hat" class="cls-1" d="M25.4,11.26,24.205,10.6h0L13.489,4.651h-.131a1.262,1.262,0,0,0-.226-.071h-.441a1.393,1.393,0,0,0-.238.071h-.131L1.607,10.6a1.191,1.191,0,0,0,0,2.072L4.571,14.32v5.644a3.572,3.572,0,0,0,3.572,3.572h9.525a3.572,3.572,0,0,0,3.572-3.572V14.32l2.381-1.334v3.405a1.191,1.191,0,0,0,2.381,0V12.3A1.191,1.191,0,0,0,25.4,11.26Zm-6.537,8.7a1.191,1.191,0,0,1-1.191,1.191H8.143a1.191,1.191,0,0,1-1.191-1.191V15.641l5.37,2.977.179.071h.107a1.191,1.191,0,0,0,.3,0h0a1.191,1.191,0,0,0,.3,0h.107a.56.56,0,0,0,.179-.071l5.37-2.977Zm-5.953-3.739-8.263-4.6,8.263-4.6,8.263,4.6Z" transform="translate(-1.003 -4.58)"/>
</svg>
