<svg xmlns="http://www.w3.org/2000/svg" width="20" height="25" viewBox="0 0 20 25">
  <defs>
    <style>
      .cls-1 {
        fill: #707070;
      }
    </style>
  </defs>
  <path id="map-marker" class="cls-1" d="M14,2A10,10,0,0,0,4,12c0,6.75,8.812,14.375,9.187,14.7a1.25,1.25,0,0,0,1.625,0C15.25,26.375,24,18.75,24,12A10,10,0,0,0,14,2Zm0,22.062C11.337,21.562,6.5,16.175,6.5,12a7.5,7.5,0,1,1,15,0C21.5,16.175,16.662,21.575,14,24.062ZM14,7a5,5,0,1,0,5,5A5,5,0,0,0,14,7Zm0,7.5A2.5,2.5,0,1,1,16.5,12,2.5,2.5,0,0,1,14,14.5Z" transform="translate(-4 -2)"/>
</svg>
