<svg xmlns="http://www.w3.org/2000/svg" width="70" height="70" viewBox="0 0 70 70">
  <defs>
    <style>
      .cls-1 {
        fill: #1e8bf9;
      }

      .cls-2 {
        fill: #fff;
      }
    </style>
  </defs>
  <g id="Group_2035" data-name="Group 2035" transform="translate(-1239 -562)">
    <path id="Path_8017" data-name="Path 8017" class="cls-1" d="M35,0A35,35,0,1,1,0,35,35,35,0,0,1,35,0Z" transform="translate(1239 562)"/>
    <path id="phone" class="cls-2" d="M37.126,24.1a6.334,6.334,0,0,1-1.349-.242,19,19,0,0,1-2.637-.785,4.026,4.026,0,0,0-4.992,2.013L27.7,26A24.519,24.519,0,0,1,22.35,21.97a24.519,24.519,0,0,1-4.026-5.355l.845-.564a4.026,4.026,0,0,0,2.013-4.992A20.8,20.8,0,0,1,20.4,8.422c-.1-.443-.181-.906-.242-1.369A6.039,6.039,0,0,0,14.117,2.04H8.078A6.039,6.039,0,0,0,2.039,8.9,38.248,38.248,0,0,0,35.294,42.04h.765A6.025,6.025,0,0,0,42.1,35.98V29.941A6.039,6.039,0,0,0,37.126,24.1Zm1.007,12.078a2.013,2.013,0,0,1-.684,1.51,2.114,2.114,0,0,1-1.651.5A34.222,34.222,0,0,1,6.185,8.442a2.194,2.194,0,0,1,.5-1.651A2.013,2.013,0,0,1,8.2,6.107h6.039A2.013,2.013,0,0,1,16.251,7.7q.121.825.3,1.631a22.385,22.385,0,0,0,.926,3.12L14.66,13.756a2.013,2.013,0,0,0-.986,2.677A29.169,29.169,0,0,0,27.765,30.525a2.133,2.133,0,0,0,2.677-1.047l1.248-2.818a27.559,27.559,0,0,0,3.181.926q.805.181,1.631.3a2.013,2.013,0,0,1,1.59,2.013Z" transform="translate(1252.018 574.96)"/>
  </g>
</svg>
