<svg height="480pt" viewBox="0 -44 480 480" width="480pt" xmlns="http://www.w3.org/2000/svg"><path d="m166.496094 208c18.496094-.019531 33.484375-15.007812 33.503906-33.503906v-174.496094h-160v48h-40v16h40v110.496094c.019531 18.496094 15.007812 33.484375 33.503906 33.503906h14.496094v16h-32c-26.5.027344-47.972656 21.5-48 48v120h224v-120c-.027344-26.5-21.5-47.972656-48-48h-32v-16zm-110.496094-192h128v32h-128zm17.503906 176c-9.664062-.007812-17.496094-7.839844-17.503906-17.503906v-110.496094h128v110.496094c-.007812 9.664062-7.839844 17.496094-17.503906 17.503906zm-33.503906 184h-16v-64h16zm176 0h-16v-64h16zm-32-136c17.671875 0 32 14.328125 32 32v24h-32v80h-128v-80h-32v-24c0-17.671875 14.328125-32 32-32h32c0 17.671875 14.328125 32 32 32s32-14.328125 32-32zm-80 0h32c0 8.835938-7.164062 16-16 16s-16-7.164062-16-16zm32-16h-32v-16h32zm0 0"/><path d="m120 288h-16c-4.417969 0-8 3.582031-8 8s3.582031 8 8 8h8v48c0 4.417969 3.582031 8 8 8s8-3.582031 8-8v-56c0-4.417969-3.582031-8-8-8zm0 0"/><path d="m440 0h-160v174.496094c.019531 18.496094 15.007812 33.484375 33.503906 33.503906h14.496094v16h-32c-26.5.027344-47.972656 21.5-48 48v120h224v-120c-.027344-26.5-21.5-47.972656-48-48h-32v-16h14.496094c18.496094-.019531 33.484375-15.007812 33.503906-33.503906v-110.496094h40v-16h-40zm-144 16h128v32h-128zm-16 360h-16v-64h16zm176 0h-16v-64h16zm-32-136c17.671875 0 32 14.328125 32 32v24h-32v80h-128v-80h-32v-24c0-17.671875 14.328125-32 32-32h32c0 17.671875 14.328125 32 32 32s32-14.328125 32-32zm-80 0h32c0 8.835938-7.164062 16-16 16s-16-7.164062-16-16zm32-16h-32v-16h32zm48-49.503906c-.007812 9.664062-7.839844 17.496094-17.503906 17.503906h-92.992188c-9.664062-.007812-17.496094-7.839844-17.503906-17.503906v-110.496094h128zm0 0"/><path d="m376 288h-32c-4.417969 0-8 3.582031-8 8s3.582031 8 8 8h17.046875l-23.703125 35.558594c-1.636719 2.457031-1.789062 5.613281-.398438 8.214844 1.390626 2.601562 4.105469 4.226562 7.054688 4.226562h32c4.417969 0 8-3.582031 8-8s-3.582031-8-8-8h-17.046875l23.703125-35.558594c1.636719-2.457031 1.789062-5.613281.398438-8.214844-1.390626-2.601562-4.105469-4.226562-7.054688-4.226562zm0 0"/><path d="m72 88h16v16h-16zm0 0"/><path d="m152 88h16v16h-16zm0 0"/><path d="m312 88h16v16h-16zm0 0"/><path d="m384 88h16v16h-16zm0 0"/><path d="m128 128h-8v-32h-16v48h24zm0 0"/><path d="m88 160h56v16h-56zm0 0"/><path d="m368 128h-8v-32h-16v48h24zm0 0"/><path d="m328 160h56v16h-56zm0 0"/></svg>