<svg xmlns="http://www.w3.org/2000/svg" width="30" height="23.213" viewBox="0 0 30 23.213">
  <defs>
    <style>
      .cls-1 {
        fill: #f92c8b;
      }
    </style>
  </defs>
  <path id="users-alt" class="cls-1" d="M16.43,15.407a6.718,6.718,0,0,0,2.321-5.08,6.827,6.827,0,1,0-13.655,0,6.718,6.718,0,0,0,2.321,5.08A10.924,10.924,0,0,0,1,25.348a1.365,1.365,0,0,0,2.731,0,8.193,8.193,0,0,1,16.386,0,1.365,1.365,0,0,0,2.731,0,10.924,10.924,0,0,0-6.418-9.941Zm-4.506-.983a4.1,4.1,0,1,1,4.1-4.1A4.1,4.1,0,0,1,11.924,14.424Zm13.3.437A6.827,6.827,0,0,0,20.117,3.5a1.365,1.365,0,0,0,0,2.731,4.089,4.089,0,0,1,2.048,7.633,1.364,1.364,0,0,0-.068,2.321l.533.355.178.1a9.558,9.558,0,0,1,5.462,8.712,1.365,1.365,0,1,0,2.731,0A12.289,12.289,0,0,0,25.224,14.861Z" transform="translate(-1 -3.5)"/>
</svg>
