<svg xmlns="http://www.w3.org/2000/svg" width="50" height="50" viewBox="0 0 50 50">
  <defs>
    <style>
      .cls-1 {
        fill: #25d366;
      }

      .cls-2 {
        fill: #fff;
        fill-rule: evenodd;
      }
    </style>
  </defs>
  <g id="Group_2471" data-name="Group 2471" transform="translate(-830 -219)">
    <circle id="Ellipse_139" data-name="Ellipse 139" class="cls-1" cx="25" cy="25" r="25" transform="translate(830 219)"/>
    <path id="whatsapp" class="cls-2" d="M25.756,4.36A14.869,14.869,0,0,0,2.359,22.3L.25,30l7.881-2.067a14.85,14.85,0,0,0,7.1,1.809h.006A14.872,14.872,0,0,0,25.756,4.36ZM15.241,27.232h-.005a12.341,12.341,0,0,1-6.289-1.722L8.5,25.241,3.819,26.468l1.248-4.56-.294-.467a12.356,12.356,0,1,1,10.467,5.79Zm6.777-9.254c-.371-.186-2.2-1.084-2.538-1.208s-.588-.186-.836.186-.959,1.208-1.176,1.456-.433.279-.8.093a10.146,10.146,0,0,1-2.987-1.844,11.2,11.2,0,0,1-2.066-2.573c-.216-.372,0-.554.163-.758a10.507,10.507,0,0,0,.929-1.271.683.683,0,0,0-.031-.651c-.093-.186-.836-2.014-1.145-2.758-.3-.724-.608-.626-.836-.638S10.225,8,9.977,8a1.364,1.364,0,0,0-.991.465,4.166,4.166,0,0,0-1.3,3.1A7.226,7.226,0,0,0,9.2,15.406a16.557,16.557,0,0,0,6.345,5.609,21.261,21.261,0,0,0,2.118.783,5.092,5.092,0,0,0,2.34.147,3.827,3.827,0,0,0,2.507-1.766,3.1,3.1,0,0,0,.216-1.766c-.093-.155-.34-.248-.712-.434Zm0,0" transform="translate(839.75 229)"/>
  </g>
</svg>
