<svg xmlns="http://www.w3.org/2000/svg" width="42.857" height="30" viewBox="0 0 42.857 30">
  <path id="heartbeat" d="M42.714,16.1H37.357a2.285,2.285,0,0,0-1.521.57l-2.657,2.453-6-6.065a2.334,2.334,0,0,0-3.129,0l-3.643,3.232H17a2.033,2.033,0,0,0-2.143,1.9A2.033,2.033,0,0,0,17,20.091h4.286a2.291,2.291,0,0,0,1.521-.551l2.764-2.548,6,6.065a2.261,2.261,0,0,0,1.543.646h0a2.291,2.291,0,0,0,1.521-.551L38.279,19.9h4.436A2.033,2.033,0,0,0,44.857,18,2.033,2.033,0,0,0,42.714,16.1ZM26.879,26.175l-4.071,3.612a2.339,2.339,0,0,1-3.043,0L8.6,19.882a6.471,6.471,0,0,1,0-9.925,8.635,8.635,0,0,1,11.164,0,2.339,2.339,0,0,0,3.043,0,8.862,8.862,0,0,1,11.164,0,7.681,7.681,0,0,1,1.243,1.426,2.321,2.321,0,0,0,2.81.525A1.8,1.8,0,0,0,38.9,9.482a11.711,11.711,0,0,0-1.886-2.148,13.342,13.342,0,0,0-15.729-1.2A13.481,13.481,0,0,0,8.613,5.291,10.725,10.725,0,0,0,2,14.92a10.122,10.122,0,0,0,3.579,7.605l11.164,9.906a7.02,7.02,0,0,0,9.086,0l4.029-3.574a1.753,1.753,0,0,0,0-2.681,2.343,2.343,0,0,0-2.979,0Z" transform="translate(-2 -4.099)" fill="#f92c8b"/>
</svg>
