<svg xmlns="http://www.w3.org/2000/svg" width="60" height="60" viewBox="0 0 60 60">
  <defs>
    <style>
      .cls-1 {
        fill: #f92c8b;
      }

      .cls-2 {
        fill: #fff;
      }
    </style>
  </defs>
  <g id="Group_2464" data-name="Group 2464" transform="translate(-349 -523)">
    <circle id="Ellipse_13" data-name="Ellipse 13" class="cls-1" cx="30" cy="30" r="30" transform="translate(349 523)"/>
    <path id="pen" class="cls-2" d="M64,41.86a1.5,1.5,0,0,0-.435-1.065l-6.36-6.36a1.521,1.521,0,0,0-2.13,0L50.83,38.68h0L34.435,55.075A1.5,1.5,0,0,0,34,56.14V62.5A1.5,1.5,0,0,0,35.5,64h6.36A1.5,1.5,0,0,0,43,63.565L59.3,47.17h0L63.565,43a1.784,1.784,0,0,0,.33-.495,1.5,1.5,0,0,0,0-.36,1.05,1.05,0,0,0,0-.21ZM41.245,61H37V56.755L51.895,41.86,56.14,46.1Zm17.01-17.01L54.01,39.745l2.13-2.115,4.23,4.23Z" transform="translate(330 504.001)"/>
  </g>
</svg>
