<svg xmlns="http://www.w3.org/2000/svg" width="60" height="60" viewBox="0 0 60 60">
  <defs>
    <style>
      .cls-1 {
        fill: #f92c8b;
      }

      .cls-2 {
        fill: #fff;
      }
    </style>
  </defs>
  <g id="Group_2472" data-name="Group 2472" transform="translate(-1038 -429)">
    <path id="Path_54" data-name="Path 54" class="cls-1" d="M30,0A30,30,0,1,1,0,30,30,30,0,0,1,30,0Z" transform="translate(1038 429)"/>
    <path id="camera-plus" class="cls-2" d="M26.909,13.409a1.364,1.364,0,0,0-1.364,1.364v9.545a1.364,1.364,0,0,1-1.364,1.364H5.091a1.364,1.364,0,0,1-1.364-1.364V13.409a1.364,1.364,0,0,1,1.364-1.364H7.818a1.364,1.364,0,0,0,1.364-.927l.736-2.236a1.364,1.364,0,0,1,1.3-.927h7.514a1.364,1.364,0,0,0,0-2.727H11.145a4.091,4.091,0,0,0-3.873,2.8L6.836,9.386H5.091A4.091,4.091,0,0,0,1,13.477V24.386a4.091,4.091,0,0,0,4.091,4.091H24.182a4.091,4.091,0,0,0,4.091-4.091V14.841a1.364,1.364,0,0,0-1.364-1.432ZM14.636,12.045A5.455,5.455,0,1,0,20.091,17.5,5.455,5.455,0,0,0,14.636,12.045Zm0,8.182A2.727,2.727,0,1,1,17.364,17.5,2.727,2.727,0,0,1,14.636,20.227Zm15-15H28.273V3.864a1.364,1.364,0,0,0-2.727,0V5.227H24.182a1.364,1.364,0,1,0,0,2.727h1.364V9.318a1.364,1.364,0,0,0,2.727,0V7.955h1.364a1.364,1.364,0,1,0,0-2.727Z" transform="translate(1052 443.5)"/>
  </g>
</svg>
