<svg xmlns="http://www.w3.org/2000/svg" width="80" height="80" viewBox="0 0 80 80">
  <defs>
    <style>
      .cls-1 {
        fill: #f92c8b;
      }

      .cls-2 {
        fill: #fff;
      }
    </style>
  </defs>
  <g id="Group_1" data-name="Group 1" transform="translate(-298 5)">
    <circle id="Ellipse_2" data-name="Ellipse 2" class="cls-1" cx="40" cy="40" r="40" transform="translate(298 -5)"/>
    <path id="play" class="cls-2" d="M44.838,19.665,18,4.275A9.5,9.5,0,0,0,3.75,12.609V43.5A9.494,9.494,0,0,0,18,51.724l26.836-15.39a9.5,9.5,0,0,0,0-16.446ZM42.06,31.305,15.224,46.918a4,4,0,0,1-3.945,0A3.945,3.945,0,0,1,9.306,43.5v-31a3.945,3.945,0,0,1,1.973-3.417,4.2,4.2,0,0,1,1.972-.527,4.278,4.278,0,0,1,1.972.528l26.836,15.5a3.945,3.945,0,0,1,0,6.834Z" transform="translate(313.25 6.998)"/>
  </g>
</svg>
