<svg xmlns="http://www.w3.org/2000/svg" viewBox="0 0 300 300"><defs><style>.a{fill:#fe5f6b;}</style></defs><title>icons</title><path class="a" d="M76.963,15.911V31.386a103.144,103.144,0,0,0,46.784,86.377,38.5,38.5,0,0,1,0,64.474,103.144,103.144,0,0,0-46.784,86.377v15.475H242V268.614a103.143,103.143,0,0,0-46.783-86.377,38.5,38.5,0,0,1,0-64.474A103.143,103.143,0,0,0,242,31.386V15.911ZM89.153,28.1h140.66v3.285a90.953,90.953,0,0,1-41.26,76.163,50.688,50.688,0,0,0,0,84.9,90.953,90.953,0,0,1,41.26,76.163V271.9H89.153v-3.285a90.953,90.953,0,0,1,41.26-76.163,50.688,50.688,0,0,0,0-84.9,90.953,90.953,0,0,1-41.26-76.163Z"/><path class="a" d="M104.944,70.765H214.023a84.864,84.864,0,0,1-28.791,31.683A56.781,56.781,0,0,0,159.483,150a56.781,56.781,0,0,0-25.749-47.551A84.853,84.853,0,0,1,104.944,70.765Z"/><path class="a" d="M125.438,265.8l34.045-34.045L193.529,265.8Z"/></svg>