<svg xmlns="http://www.w3.org/2000/svg" viewBox="0 0 300 300"><defs><style>.a{fill:#fe5f6b;}</style></defs><title>icons</title><rect class="a" x="222.665" y="69.447" width="19.891" height="111.886"/><rect class="a" x="176.667" y="115.444" width="111.886" height="19.891"/><path class="a" d="M111.3,143.7A53.076,53.076,0,1,0,58.212,90.63,53.078,53.078,0,0,0,111.3,143.7Z"/><path class="a" d="M133.814,147.321H88.775c-37.473,0-67.959,23.645-67.959,52.705V242.74l.14.669,3.793.921c35.762,8.665,66.831,11.555,92.4,11.555,49.948,0,78.9-11.044,80.682-11.748l3.546-1.39h.379V200.026C201.774,170.966,171.287,147.321,133.814,147.321Z"/></svg>