<svg xmlns="http://www.w3.org/2000/svg" xmlns:xlink="http://www.w3.org/1999/xlink" viewBox="0 0 300 300"><defs><style>.a{fill:url(#a);}.b{fill:#666;}</style><linearGradient id="a" x1="245.089" y1="-2059.241" x2="245.089" y2="-2124.431" gradientTransform="matrix(1, 0, 0, -1, 0, -2001.328)" gradientUnits="userSpaceOnUse"><stop offset="0" stop-color="#fe5f6b"/><stop offset="0.17" stop-color="#f04f61"/><stop offset="0.455" stop-color="#de3a55"/><stop offset="0.734" stop-color="#d42d4e"/><stop offset="1" stop-color="#d0294b"/></linearGradient></defs><title>icons</title><path class="a" d="M245.092,122.075c-47.241-32.709-36.074-55.854-35.529-56.918a.226.226,0,0,0,.026-.042A21.013,21.013,0,0,1,245.136,59.4a20.993,20.993,0,0,1,36.09,7.294c.017.05.026.092.043.142.051.159.1.327.145.5C283.243,73.925,284.725,94.634,245.092,122.075Z"/><polygon class="b" points="13.272 254.052 13.272 39.176 95.296 125.127 177.319 39.176 177.319 254.052 145.083 254.052 145.083 125.127 95.296 168.101 45.508 125.127 45.508 254.052 13.272 254.052"/><path class="b" d="M193.148,231.026l54.963-63.548H195.827V143.294h87.028v23.832l-53.918,62.743h57.791v24.185H193.154Z"/></svg>